<mxfile host="65bd71144e">
    <diagram id="K0o4QuMZv47mpr9lXFpU" name="Page-1">
        <mxGraphModel dx="1865" dy="1221" grid="1" gridSize="10" guides="1" tooltips="1" connect="1" arrows="1" fold="1" page="0" pageScale="1" pageWidth="850" pageHeight="1100" math="0" shadow="0">
            <root>
                <mxCell id="0"/>
                <mxCell id="1" parent="0"/>
                <mxCell id="3" value="ClassModelo" style="swimlane;fontStyle=1;align=center;verticalAlign=top;childLayout=stackLayout;horizontal=1;startSize=26;horizontalStack=0;resizeParent=1;resizeParentMax=0;resizeLast=0;collapsible=1;marginBottom=0;fontFamily=Operator Mono;fontSource=https%3A%2F%2Ffonts.googleapis.com%2Fcss%3Ffamily%3DOperator%2BMono;rounded=1;" parent="1" vertex="1">
                    <mxGeometry x="640" y="180" width="160" height="86" as="geometry"/>
                </mxCell>
                <mxCell id="4" value="+ field: type" style="text;strokeColor=none;fillColor=none;align=left;verticalAlign=top;spacingLeft=4;spacingRight=4;overflow=hidden;rotatable=0;points=[[0,0.5],[1,0.5]];portConstraint=eastwest;" parent="3" vertex="1">
                    <mxGeometry y="26" width="160" height="26" as="geometry"/>
                </mxCell>
                <mxCell id="5" value="" style="line;strokeWidth=1;fillColor=none;align=left;verticalAlign=middle;spacingTop=-1;spacingLeft=3;spacingRight=3;rotatable=0;labelPosition=right;points=[];portConstraint=eastwest;strokeColor=inherit;" parent="3" vertex="1">
                    <mxGeometry y="52" width="160" height="8" as="geometry"/>
                </mxCell>
                <mxCell id="6" value="+ method(type): type" style="text;strokeColor=none;fillColor=none;align=left;verticalAlign=top;spacingLeft=4;spacingRight=4;overflow=hidden;rotatable=0;points=[[0,0.5],[1,0.5]];portConstraint=eastwest;" parent="3" vertex="1">
                    <mxGeometry y="60" width="160" height="26" as="geometry"/>
                </mxCell>
                <mxCell id="7" value="&lt;p style=&quot;margin:0px;margin-top:4px;text-align:center;&quot;&gt;&lt;i&gt;&amp;lt;&amp;lt;Interface&amp;gt;&amp;gt;&lt;/i&gt;&lt;br&gt;&lt;b&gt;ICrud&lt;/b&gt;&lt;/p&gt;&lt;hr size=&quot;1&quot;&gt;&lt;p style=&quot;margin:0px;margin-left:4px;&quot;&gt;&lt;/p&gt;&lt;p style=&quot;margin:0px;margin-left:4px;&quot;&gt;+ create(Type): void&lt;/p&gt;&lt;p style=&quot;margin:0px;margin-left:4px;&quot;&gt;+ read(Type): void&lt;br&gt;+ update(Type): void&lt;br&gt;+ delete(Type): void&lt;/p&gt;" style="verticalAlign=top;align=left;overflow=fill;fontSize=12;fontFamily=Operator Mono;html=1;fontSource=https%3A%2F%2Ffonts.googleapis.com%2Fcss%3Ffamily%3DOperator%2BMono;rounded=1;" parent="1" vertex="1">
                    <mxGeometry x="600" y="-5" width="190" height="110" as="geometry"/>
                </mxCell>
                <mxCell id="10" value="" style="image;html=1;image=img/lib/clip_art/computers/Database_Move_Stack_128x128.png;dashed=1;strokeWidth=2;fontFamily=Operator Mono;fontSource=https%3A%2F%2Ffonts.googleapis.com%2Fcss%3Ffamily%3DOperator%2BMono;gradientColor=none;" parent="1" vertex="1">
                    <mxGeometry x="1340" y="30" width="80" height="80" as="geometry"/>
                </mxCell>
                <mxCell id="24" value="" style="edgeStyle=none;html=1;fontFamily=Operator Mono;fontSource=https%3A%2F%2Ffonts.googleapis.com%2Fcss%3Ffamily%3DOperator%2BMono;entryX=0;entryY=0.4;entryDx=0;entryDy=0;entryPerimeter=0;" parent="1" source="11" target="16" edge="1">
                    <mxGeometry relative="1" as="geometry">
                        <mxPoint x="120" y="160" as="targetPoint"/>
                    </mxGeometry>
                </mxCell>
                <mxCell id="11" value="" style="image;html=1;image=img/lib/clip_art/people/Suit_Man_Black_128x128.png;dashed=1;strokeWidth=2;fontFamily=Operator Mono;fontSource=https%3A%2F%2Ffonts.googleapis.com%2Fcss%3Ffamily%3DOperator%2BMono;gradientColor=none;" parent="1" vertex="1">
                    <mxGeometry x="-40" y="120" width="80" height="80" as="geometry"/>
                </mxCell>
                <mxCell id="25" style="edgeStyle=none;html=1;entryX=0.008;entryY=0.575;entryDx=0;entryDy=0;entryPerimeter=0;fontFamily=Operator Mono;fontSource=https%3A%2F%2Ffonts.googleapis.com%2Fcss%3Ffamily%3DOperator%2BMono;fillColor=#a20025;strokeColor=#6F0000;" parent="1" source="12" target="16" edge="1">
                    <mxGeometry relative="1" as="geometry"/>
                </mxCell>
                <mxCell id="12" value="" style="image;html=1;image=img/lib/clip_art/people/Suit_Woman_Blue_128x128.png;dashed=1;strokeWidth=2;fontFamily=Operator Mono;fontSource=https%3A%2F%2Ffonts.googleapis.com%2Fcss%3Ffamily%3DOperator%2BMono;gradientColor=none;" parent="1" vertex="1">
                    <mxGeometry x="-40" y="200" width="80" height="80" as="geometry"/>
                </mxCell>
                <mxCell id="15" value="" style="strokeWidth=1;shadow=0;dashed=0;align=center;html=1;shape=mxgraph.mockup.rrect;rSize=10;strokeColor=#666666;rounded=1;fontFamily=Operator Mono;fontSource=https%3A%2F%2Ffonts.googleapis.com%2Fcss%3Ffamily%3DOperator%2BMono;gradientColor=none;" parent="1" vertex="1">
                    <mxGeometry x="140" y="100" width="200" height="173" as="geometry"/>
                </mxCell>
                <mxCell id="16" value="Menu Cliente" style="strokeColor=inherit;fillColor=inherit;gradientColor=inherit;strokeWidth=1;shadow=0;dashed=0;align=center;html=1;shape=mxgraph.mockup.rrect;rSize=0;fontSize=17;fontColor=#666666;fontStyle=1;resizeWidth=1;rounded=1;fontFamily=Operator Mono;fontSource=https%3A%2F%2Ffonts.googleapis.com%2Fcss%3Ffamily%3DOperator%2BMono;" parent="15" vertex="1">
                    <mxGeometry width="200" height="40" relative="1" as="geometry">
                        <mxPoint y="40" as="offset"/>
                    </mxGeometry>
                </mxCell>
                <mxCell id="17" value="Menu Fornecedor" style="strokeColor=inherit;fillColor=inherit;gradientColor=inherit;strokeWidth=1;shadow=0;dashed=0;align=center;html=1;shape=mxgraph.mockup.rrect;rSize=0;fontSize=17;fontColor=#666666;fontStyle=1;resizeWidth=1;rounded=1;fontFamily=Operator Mono;fontSource=https%3A%2F%2Ffonts.googleapis.com%2Fcss%3Ffamily%3DOperator%2BMono;" parent="15" vertex="1">
                    <mxGeometry width="200" height="40" relative="1" as="geometry">
                        <mxPoint y="80" as="offset"/>
                    </mxGeometry>
                </mxCell>
                <mxCell id="19" value="Menu Principal" style="strokeWidth=1;shadow=0;dashed=0;align=center;html=1;shape=mxgraph.mockup.topButton;rSize=10;fontSize=17;fontColor=#ffffff;fontStyle=1;fillColor=#008cff;strokeColor=#008cff;resizeWidth=1;rounded=1;fontFamily=Operator Mono;fontSource=https%3A%2F%2Ffonts.googleapis.com%2Fcss%3Ffamily%3DOperator%2BMono;" parent="15" vertex="1">
                    <mxGeometry width="200" height="40" relative="1" as="geometry"/>
                </mxCell>
                <mxCell id="21" value="Menu Administrar" style="strokeColor=inherit;fillColor=inherit;gradientColor=inherit;strokeWidth=1;shadow=0;dashed=0;align=center;html=1;shape=mxgraph.mockup.rrect;rSize=0;fontSize=17;fontColor=#666666;fontStyle=1;resizeWidth=1;rounded=1;fontFamily=Operator Mono;fontSource=https%3A%2F%2Ffonts.googleapis.com%2Fcss%3Ffamily%3DOperator%2BMono;" parent="15" vertex="1">
                    <mxGeometry y="103.8" width="200" height="34.6" as="geometry"/>
                </mxCell>
                <mxCell id="22" value="Sair (op==0)" style="strokeColor=inherit;fillColor=inherit;gradientColor=inherit;strokeWidth=1;shadow=0;dashed=0;align=center;html=1;shape=mxgraph.mockup.rrect;rSize=0;fontSize=17;fontColor=#666666;fontStyle=1;resizeWidth=1;rounded=1;fontFamily=Operator Mono;fontSource=https%3A%2F%2Ffonts.googleapis.com%2Fcss%3Ffamily%3DOperator%2BMono;" parent="15" vertex="1">
                    <mxGeometry y="138.4" width="200" height="34.6" as="geometry"/>
                </mxCell>
                <mxCell id="32" style="edgeStyle=none;html=1;fontFamily=Operator Mono;fontSource=https%3A%2F%2Ffonts.googleapis.com%2Fcss%3Ffamily%3DOperator%2BMono;fillColor=#a20025;strokeColor=#6F0000;exitX=1;exitY=0.75;exitDx=0;exitDy=0;exitPerimeter=0;entryX=0.529;entryY=-0.032;entryDx=0;entryDy=0;entryPerimeter=0;" parent="15" source="16" target="29" edge="1">
                    <mxGeometry relative="1" as="geometry"/>
                </mxCell>
                <mxCell id="26" value="" style="strokeWidth=1;shadow=0;dashed=0;align=center;html=1;shape=mxgraph.mockup.rrect;rSize=10;strokeColor=#666666;rounded=1;fontFamily=Operator Mono;fontSource=https%3A%2F%2Ffonts.googleapis.com%2Fcss%3Ffamily%3DOperator%2BMono;gradientColor=none;" parent="1" vertex="1">
                    <mxGeometry x="370" y="230" width="200" height="180" as="geometry"/>
                </mxCell>
                <mxCell id="27" value="Criar Usuario" style="strokeColor=inherit;fillColor=inherit;gradientColor=inherit;strokeWidth=1;shadow=0;dashed=0;align=center;html=1;shape=mxgraph.mockup.rrect;rSize=0;fontSize=17;fontColor=#666666;fontStyle=1;resizeWidth=1;rounded=1;fontFamily=Operator Mono;fontSource=https%3A%2F%2Ffonts.googleapis.com%2Fcss%3Ffamily%3DOperator%2BMono;" parent="26" vertex="1">
                    <mxGeometry width="200" height="40" relative="1" as="geometry">
                        <mxPoint y="40" as="offset"/>
                    </mxGeometry>
                </mxCell>
                <mxCell id="28" value="Deletar Usuario" style="strokeColor=inherit;fillColor=inherit;gradientColor=inherit;strokeWidth=1;shadow=0;dashed=0;align=center;html=1;shape=mxgraph.mockup.rrect;rSize=0;fontSize=17;fontColor=#666666;fontStyle=1;resizeWidth=1;rounded=1;fontFamily=Operator Mono;fontSource=https%3A%2F%2Ffonts.googleapis.com%2Fcss%3Ffamily%3DOperator%2BMono;" parent="26" vertex="1">
                    <mxGeometry width="200" height="40" relative="1" as="geometry">
                        <mxPoint y="80" as="offset"/>
                    </mxGeometry>
                </mxCell>
                <mxCell id="29" value="Menu Classe" style="strokeWidth=1;shadow=0;dashed=0;align=center;html=1;shape=mxgraph.mockup.topButton;rSize=10;fontSize=17;fontColor=#ffffff;fontStyle=1;fillColor=#008cff;strokeColor=#008cff;resizeWidth=1;rounded=1;fontFamily=Operator Mono;fontSource=https%3A%2F%2Ffonts.googleapis.com%2Fcss%3Ffamily%3DOperator%2BMono;" parent="26" vertex="1">
                    <mxGeometry width="200" height="40" relative="1" as="geometry"/>
                </mxCell>
                <mxCell id="30" value="Ler Usuario" style="strokeColor=inherit;fillColor=inherit;gradientColor=inherit;strokeWidth=1;shadow=0;dashed=0;align=center;html=1;shape=mxgraph.mockup.rrect;rSize=0;fontSize=17;fontColor=#666666;fontStyle=1;resizeWidth=1;rounded=1;fontFamily=Operator Mono;fontSource=https%3A%2F%2Ffonts.googleapis.com%2Fcss%3Ffamily%3DOperator%2BMono;" parent="26" vertex="1">
                    <mxGeometry y="108" width="200" height="36" as="geometry"/>
                </mxCell>
                <mxCell id="31" value="Sair (op==0)" style="strokeColor=inherit;fillColor=inherit;gradientColor=inherit;strokeWidth=1;shadow=0;dashed=0;align=center;html=1;shape=mxgraph.mockup.rrect;rSize=0;fontSize=17;fontColor=#666666;fontStyle=1;resizeWidth=1;rounded=1;fontFamily=Operator Mono;fontSource=https%3A%2F%2Ffonts.googleapis.com%2Fcss%3Ffamily%3DOperator%2BMono;" parent="26" vertex="1">
                    <mxGeometry y="144" width="200" height="36" as="geometry"/>
                </mxCell>
                <mxCell id="49" style="edgeStyle=none;html=1;entryX=0;entryY=0.5;entryDx=0;entryDy=0;fontFamily=Operator Mono;fontSource=https%3A%2F%2Ffonts.googleapis.com%2Fcss%3Ffamily%3DOperator%2BMono;fillColor=#a20025;strokeColor=#6F0000;" parent="26" source="29" target="4" edge="1">
                    <mxGeometry relative="1" as="geometry"/>
                </mxCell>
                <mxCell id="34" value="&lt;p style=&quot;margin:0px;margin-top:4px;text-align:center;&quot;&gt;&lt;b&gt;&amp;lt;&amp;lt;PadraoDao&amp;gt;&amp;gt;&lt;/b&gt;&lt;/p&gt;&lt;hr size=&quot;1&quot;&gt;&lt;p style=&quot;margin:0px;margin-left:4px;&quot;&gt;# c: Connection&lt;br&gt;# st: Statement&lt;/p&gt;&lt;p style=&quot;margin:0px;margin-left:4px;&quot;&gt;# pst: PreparedStatement&lt;/p&gt;&lt;p style=&quot;margin:0px;margin-left:4px;&quot;&gt;# rs: ResultSet&lt;/p&gt;" style="verticalAlign=top;align=left;overflow=fill;fontSize=12;fontFamily=Operator Mono;html=1;fontSource=https%3A%2F%2Ffonts.googleapis.com%2Fcss%3Ffamily%3DOperator%2BMono;rounded=1;" parent="1" vertex="1">
                    <mxGeometry x="830" width="190" height="120" as="geometry"/>
                </mxCell>
                <mxCell id="36" value="" style="endArrow=classic;html=1;fontFamily=Operator Mono;fontSource=https%3A%2F%2Ffonts.googleapis.com%2Fcss%3Ffamily%3DOperator%2BMono;exitX=0.5;exitY=0;exitDx=0;exitDy=0;entryX=0.5;entryY=1;entryDx=0;entryDy=0;" parent="1" source="3" target="7" edge="1">
                    <mxGeometry relative="1" as="geometry">
                        <mxPoint x="550" y="120" as="sourcePoint"/>
                        <mxPoint x="650" y="120" as="targetPoint"/>
                    </mxGeometry>
                </mxCell>
                <mxCell id="37" value="implements" style="edgeLabel;resizable=0;html=1;align=center;verticalAlign=middle;rounded=1;labelBackgroundColor=#1A1A1A;strokeWidth=2;fontFamily=Operator Mono;fontSource=https%3A%2F%2Ffonts.googleapis.com%2Fcss%3Ffamily%3DOperator%2BMono;gradientColor=none;" parent="36" connectable="0" vertex="1">
                    <mxGeometry relative="1" as="geometry"/>
                </mxCell>
                <mxCell id="48" value="" style="edgeStyle=none;html=1;fontFamily=Operator Mono;fontSource=https%3A%2F%2Ffonts.googleapis.com%2Fcss%3Ffamily%3DOperator%2BMono;fillColor=#a20025;strokeColor=#6F0000;" parent="1" source="38" target="46" edge="1">
                    <mxGeometry relative="1" as="geometry"/>
                </mxCell>
                <mxCell id="38" value="ClassDAO" style="swimlane;fontStyle=1;align=center;verticalAlign=top;childLayout=stackLayout;horizontal=1;startSize=26;horizontalStack=0;resizeParent=1;resizeParentMax=0;resizeLast=0;collapsible=1;marginBottom=0;fontFamily=Operator Mono;fontSource=https%3A%2F%2Ffonts.googleapis.com%2Fcss%3Ffamily%3DOperator%2BMono;rounded=1;" parent="1" vertex="1">
                    <mxGeometry x="930" y="180" width="160" height="86" as="geometry"/>
                </mxCell>
                <mxCell id="39" value="+ field: type" style="text;strokeColor=none;fillColor=none;align=left;verticalAlign=top;spacingLeft=4;spacingRight=4;overflow=hidden;rotatable=0;points=[[0,0.5],[1,0.5]];portConstraint=eastwest;" parent="38" vertex="1">
                    <mxGeometry y="26" width="160" height="26" as="geometry"/>
                </mxCell>
                <mxCell id="40" value="" style="line;strokeWidth=1;fillColor=none;align=left;verticalAlign=middle;spacingTop=-1;spacingLeft=3;spacingRight=3;rotatable=0;labelPosition=right;points=[];portConstraint=eastwest;strokeColor=inherit;" parent="38" vertex="1">
                    <mxGeometry y="52" width="160" height="8" as="geometry"/>
                </mxCell>
                <mxCell id="41" value="+ method(type): type" style="text;strokeColor=none;fillColor=none;align=left;verticalAlign=top;spacingLeft=4;spacingRight=4;overflow=hidden;rotatable=0;points=[[0,0.5],[1,0.5]];portConstraint=eastwest;" parent="38" vertex="1">
                    <mxGeometry y="60" width="160" height="26" as="geometry"/>
                </mxCell>
                <mxCell id="42" value="" style="endArrow=diamondThin;endFill=1;endSize=24;html=1;fontFamily=Operator Mono;fontSource=https%3A%2F%2Ffonts.googleapis.com%2Fcss%3Ffamily%3DOperator%2BMono;exitX=0;exitY=0.5;exitDx=0;exitDy=0;entryX=1;entryY=0.5;entryDx=0;entryDy=0;fillColor=#a20025;strokeColor=#6F0000;" parent="1" source="39" target="4" edge="1">
                    <mxGeometry width="160" relative="1" as="geometry">
                        <mxPoint x="520" y="120" as="sourcePoint"/>
                        <mxPoint x="680" y="120" as="targetPoint"/>
                    </mxGeometry>
                </mxCell>
                <mxCell id="47" style="edgeStyle=none;html=1;entryX=0;entryY=0.25;entryDx=0;entryDy=0;fontFamily=Operator Mono;fontSource=https%3A%2F%2Ffonts.googleapis.com%2Fcss%3Ffamily%3DOperator%2BMono;fillColor=#a20025;strokeColor=#6F0000;" parent="1" source="43" target="10" edge="1">
                    <mxGeometry relative="1" as="geometry"/>
                </mxCell>
                <mxCell id="43" value="Db" style="swimlane;fontStyle=1;align=center;verticalAlign=top;childLayout=stackLayout;horizontal=1;startSize=26;horizontalStack=0;resizeParent=1;resizeParentMax=0;resizeLast=0;collapsible=1;marginBottom=0;fontFamily=Operator Mono;fontSource=https%3A%2F%2Ffonts.googleapis.com%2Fcss%3Ffamily%3DOperator%2BMono;rounded=1;" parent="1" vertex="1">
                    <mxGeometry x="1160" y="150" width="160" height="86" as="geometry"/>
                </mxCell>
                <mxCell id="44" value="- atrs_connection: type" style="text;strokeColor=none;fillColor=none;align=left;verticalAlign=top;spacingLeft=4;spacingRight=4;overflow=hidden;rotatable=0;points=[[0,0.5],[1,0.5]];portConstraint=eastwest;" parent="43" vertex="1">
                    <mxGeometry y="26" width="160" height="26" as="geometry"/>
                </mxCell>
                <mxCell id="45" value="" style="line;strokeWidth=1;fillColor=none;align=left;verticalAlign=middle;spacingTop=-1;spacingLeft=3;spacingRight=3;rotatable=0;labelPosition=right;points=[];portConstraint=eastwest;strokeColor=inherit;" parent="43" vertex="1">
                    <mxGeometry y="52" width="160" height="8" as="geometry"/>
                </mxCell>
                <mxCell id="46" value="+ getConnection(type): type" style="text;strokeColor=none;fillColor=none;align=left;verticalAlign=top;spacingLeft=4;spacingRight=4;overflow=hidden;rotatable=0;points=[[0,0.5],[1,0.5]];portConstraint=eastwest;" parent="43" vertex="1">
                    <mxGeometry y="60" width="160" height="26" as="geometry"/>
                </mxCell>
                <mxCell id="50" value="" style="endArrow=classic;html=1;fontFamily=Operator Mono;fontSource=https%3A%2F%2Ffonts.googleapis.com%2Fcss%3Ffamily%3DOperator%2BMono;exitX=0.25;exitY=0;exitDx=0;exitDy=0;entryX=0.5;entryY=1;entryDx=0;entryDy=0;" parent="1" source="38" target="34" edge="1">
                    <mxGeometry relative="1" as="geometry">
                        <mxPoint x="980" y="34" as="sourcePoint"/>
                        <mxPoint x="725" y="-50" as="targetPoint"/>
                    </mxGeometry>
                </mxCell>
                <mxCell id="51" value="extends" style="edgeLabel;resizable=0;html=1;align=center;verticalAlign=middle;rounded=1;labelBackgroundColor=#1A1A1A;strokeWidth=2;fontFamily=Operator Mono;fontSource=https%3A%2F%2Ffonts.googleapis.com%2Fcss%3Ffamily%3DOperator%2BMono;gradientColor=none;" parent="50" connectable="0" vertex="1">
                    <mxGeometry relative="1" as="geometry"/>
                </mxCell>
                <mxCell id="52" value="&lt;p style=&quot;margin:0px;margin-top:4px;text-align:center;&quot;&gt;&lt;i&gt;&amp;lt;&amp;lt;Interface&amp;gt;&amp;gt;&lt;/i&gt;&lt;br&gt;&lt;b&gt;IGenericDAO&lt;/b&gt;&lt;/p&gt;&lt;hr size=&quot;1&quot;&gt;&lt;p style=&quot;margin:0px;margin-left:4px;&quot;&gt;&lt;/p&gt;&lt;p style=&quot;margin:0px;margin-left:4px;&quot;&gt;+ save(T obj): Integer&lt;/p&gt;&lt;p style=&quot;margin:0px;margin-left:4px;&quot;&gt;+ read(): ArrayList&amp;lt;T&amp;gt;&lt;br&gt;+ update(T obj): void&lt;br&gt;+ delete(int): void&lt;/p&gt;" style="verticalAlign=top;align=left;overflow=fill;fontSize=12;fontFamily=Operator Mono;html=1;fontSource=https%3A%2F%2Ffonts.googleapis.com%2Fcss%3Ffamily%3DOperator%2BMono;rounded=1;" parent="1" vertex="1">
                    <mxGeometry x="1030" width="190" height="110" as="geometry"/>
                </mxCell>
                <mxCell id="53" value="" style="endArrow=classic;html=1;fontFamily=Operator Mono;fontSource=https%3A%2F%2Ffonts.googleapis.com%2Fcss%3Ffamily%3DOperator%2BMono;exitX=0.5;exitY=0;exitDx=0;exitDy=0;entryX=0.5;entryY=1;entryDx=0;entryDy=0;" parent="1" source="38" target="52" edge="1">
                    <mxGeometry relative="1" as="geometry">
                        <mxPoint x="1109.9999999999995" y="154" as="sourcePoint"/>
                        <mxPoint x="975" y="50" as="targetPoint"/>
                    </mxGeometry>
                </mxCell>
                <mxCell id="54" value="implements" style="edgeLabel;resizable=0;html=1;align=center;verticalAlign=middle;rounded=1;labelBackgroundColor=#1A1A1A;strokeWidth=2;fontFamily=Operator Mono;fontSource=https%3A%2F%2Ffonts.googleapis.com%2Fcss%3Ffamily%3DOperator%2BMono;gradientColor=none;" parent="53" connectable="0" vertex="1">
                    <mxGeometry relative="1" as="geometry"/>
                </mxCell>
            </root>
        </mxGraphModel>
    </diagram>
</mxfile>